<?xml version="1.0" encoding="UTF-8" standalone="no"?>
<svg
   xmlns:dc="http://purl.org/dc/elements/1.1/"
   xmlns:cc="http://creativecommons.org/ns#"
   xmlns:rdf="http://www.w3.org/1999/02/22-rdf-syntax-ns#"
   xmlns:svg="http://www.w3.org/2000/svg"
   xmlns="http://www.w3.org/2000/svg"
   xmlns:sodipodi="http://sodipodi.sourceforge.net/DTD/sodipodi-0.dtd"
   xmlns:inkscape="http://www.inkscape.org/namespaces/inkscape"
   width="325"
   height="75"
   version="1.1"
   id="svg2184"
   sodipodi:docname="logo_icompass_white.svg"
   inkscape:version="1.0 (4035a4fb49, 2020-05-01)">
  <metadata
     id="metadata2190">
    <rdf:RDF>
      <cc:Work
         rdf:about="">
        <dc:format>image/svg+xml</dc:format>
        <dc:type
           rdf:resource="http://purl.org/dc/dcmitype/StillImage" />
      </cc:Work>
    </rdf:RDF>
  </metadata>
  <defs
     id="defs2188" />
  <sodipodi:namedview
     inkscape:document-rotation="0"
     pagecolor="#ffffff"
     bordercolor="#666666"
     borderopacity="1"
     objecttolerance="10"
     gridtolerance="10"
     guidetolerance="10"
     inkscape:pageopacity="0"
     inkscape:pageshadow="2"
     inkscape:window-width="1920"
     inkscape:window-height="1017"
     id="namedview2186"
     showgrid="false"
     inkscape:zoom="3.8338462"
     inkscape:cx="162.5"
     inkscape:cy="37.5"
     inkscape:window-x="-8"
     inkscape:window-y="-8"
     inkscape:window-maximized="1"
     inkscape:current-layer="svg2184" />
  <style
     type="text/css"
     id="style2097">.st0{fill:#FFFFFF;}
	.st1{fill:#22E3D3;}
	.st2{fill:#C63F3C;}</style>
  <g
     id="g2102">
    <title
       id="title2099">background</title>
    <rect
       fill="none"
       id="canvas_background"
       height="77"
       width="327"
       y="-1"
       x="-1" />
  </g>
  <g
     id="g2182">
    <title
       id="title2104">Layer 1</title>
    <g
       id="svg_1">
      <g
         id="svg_2">
        <g
           id="svg_3">
          <g
             id="svg_4">
            <path
               id="svg_5"
               d="m91.345257,24.4l-3.5,0l0,-6.2l3.5,0l0,6.2zm0,29.7l-3.5,0l0,-26.5l3.5,0l0,26.5z"
               class="st0" />
            <path
               id="svg_6"
               d="m132.645257,44.9c-1.6,3.1 -3.9,5.5 -6.7,7.2c-2.8,1.7 -6,2.6 -9.5,2.7c-5,0.1 -9.4,-1.7 -13,-5.4c-3.6,-3.7 -5.4,-8.1 -5.4,-13.2c0,-5.3 1.8,-9.6 5.4,-13.1c3.5,-3.5 7.9,-5.2 13,-5.2c3.6,0 6.8,0.9 9.7,2.7c2.8,1.8 5,4.1 6.5,7.1l-4,0c-3,-4.3 -7.1,-6.5 -12.5,-6.4c-4,0 -7.4,1.4 -10.2,4.3c-2.9,2.9 -4.3,6.3 -4.4,10.3c-0.1,4.2 1.3,7.8 4.3,10.8c3,3.1 6.5,4.6 10.7,4.6c2.4,0 4.8,-0.6 7.1,-1.9c2.2,-1.2 3.9,-2.7 5.2,-4.6l3.8,0l0,0.1z"
               class="st0" />
            <path
               id="svg_7"
               d="m161.745257,40.8c0,3.8 -1.4,7.1 -4.2,9.9c-2.8,2.8 -6.1,4.1 -9.9,4c-3.7,-0.1 -6.8,-1.5 -9.4,-4.2c-2.6,-2.7 -3.8,-5.9 -3.8,-9.6c0,-3.9 1.4,-7.2 4.1,-10c2.8,-2.8 6,-4.1 9.9,-4c3.7,0.1 6.8,1.5 9.4,4.3c2.6,2.7 3.9,5.9 3.9,9.6zm-3.6,-0.3c-0.1,-2.8 -1.1,-5.2 -3,-7.2c-1.9,-2 -4.2,-3 -6.9,-3c-2.8,0 -5.2,1 -7.2,3s-3,4.4 -3,7.3c-0.1,2.8 0.9,5.2 2.7,7.4c1.9,2.1 4.2,3.2 6.9,3.3c2.9,0.2 5.4,-0.9 7.5,-3c2.1,-2.3 3.1,-4.8 3,-7.8z"
               class="st0" />
            <path
               id="svg_8"
               d="m206.245257,54.1l-3.7,0l0,-16.3c0,-2 -0.6,-3.8 -1.8,-5.3c-1.2,-1.5 -2.7,-2.2 -4.6,-2.2c-2,0 -3.6,0.6 -5,1.9c-1.4,1.3 -2.1,2.9 -2.1,4.7l0,17.1l-3.7,0l0,-17c0,-1.9 -0.7,-3.5 -2.1,-4.7c-1.4,-1.3 -3.1,-1.9 -5,-1.9c-1.9,0 -3.5,0.7 -4.6,2.2c-1.1,1.4 -1.7,3.2 -1.7,5.3l0,16.3l-3.7,0l0,-16c0,-3.3 0.9,-6 2.8,-8c1.8,-1.9 4.1,-3 7,-3.2c3.8,-0.3 6.9,1.3 9.2,4.9c2.3,-3.6 5.4,-5.2 9.2,-4.9c2.9,0.2 5.2,1.3 7,3.2c1.9,2 2.9,4.7 2.9,8l0,15.9l-0.1,0z"
               class="st0" />
            <path
               id="svg_9"
               d="m240.145257,40.8c0,3.9 -1.4,7.2 -4.1,10c-2.8,2.8 -6,4.1 -9.9,4c-3.9,-0.2 -7.2,-1.7 -9.8,-4.7l0,13.3l-3.4,0l0,-22.4c0,-0.1 0,-0.2 0,-0.2c0,-3.8 1.4,-7.1 4.2,-9.9c2.8,-2.8 6.1,-4.1 9.9,-4c3.7,0.1 6.8,1.5 9.4,4.2c2.4,2.8 3.7,6 3.7,9.7zm-3.5,0.3c0,-2.8 -0.9,-5.2 -2.8,-7.4c-1.9,-2.1 -4.2,-3.2 -7,-3.3c-2.9,-0.2 -5.4,0.9 -7.5,3c-2.1,2.2 -3.1,4.7 -3,7.7c0.1,2.8 1.1,5.2 3,7.2c1.9,2 4.3,3 7,3c2.8,0 5.2,-1 7.2,-3s3,-4.4 3.1,-7.2z"
               class="st0" />
            <path
               id="svg_10"
               d="m273.645257,40.8l0,0.2l0,13.1l-3.5,0l0,-4.1c-2.9,3.3 -6.4,4.9 -10.6,4.7c-3.6,-0.1 -6.7,-1.5 -9.3,-4.2c-2.6,-2.7 -3.8,-5.9 -3.8,-9.6c0,-3.9 1.4,-7.2 4.1,-10c2.8,-2.8 6.1,-4.1 9.9,-3.9c3.7,0.1 6.9,1.5 9.5,4.3c2.5,2.6 3.8,5.8 3.7,9.5zm-3.6,-0.3c-0.1,-2.8 -1.1,-5.2 -3,-7.2c-1.9,-2 -4.2,-3 -6.9,-3c-2.8,0 -5.2,1 -7.2,3c-2,2 -3,4.4 -3,7.2c-0.1,2.8 0.9,5.2 2.8,7.3c1.9,2.1 4.2,3.2 6.9,3.3c2.9,0.1 5.4,-0.9 7.5,-3.1c2,-2 3,-4.5 2.9,-7.5z"
               class="st0" />
            <path
               id="svg_11"
               d="m296.945257,46.2c0.2,2.4 -0.7,4.5 -2.5,6.2c-1.9,1.8 -4,2.5 -6.4,2.4c-2.2,-0.2 -4.1,-1.1 -5.6,-2.7c-1.5,-1.6 -2.3,-3.6 -2.3,-5.9l3.7,0l0,0.9c0,0.9 0.5,1.8 1.5,2.8c1,1 2,1.4 3.2,1.4c1.5,0 2.7,-0.5 3.5,-1.4c0.8,-0.8 1.2,-1.9 1.2,-3.2c0,-2.3 -1.3,-3.8 -3.9,-4.7l-3.1,-1c-3.3,-1 -5,-3.2 -5.1,-6.6c-0.1,-2 0.6,-3.8 2.1,-5.3c1.5,-1.5 3.3,-2.2 5.3,-2.3c1.8,-0.1 3.5,0.5 5.1,1.7c1.6,1.3 2.4,2.8 2.5,4.7l0,0.8l-3.7,0l0,-0.5c0,-0.9 -0.4,-1.7 -1.2,-2.3c-0.8,-0.6 -1.7,-0.9 -2.7,-0.9c-1,0 -1.9,0.4 -2.6,1.1c-0.7,0.7 -1.1,1.5 -1.1,2.6c-0.1,1.9 1,3.3 3.4,4.1l3.1,1c3.5,1.2 5.3,3.6 5.6,7.1z"
               class="st0" />
          </g>
          <path
             id="svg_12"
             d="m319.945257,46.2c0.2,2.4 -0.7,4.5 -2.5,6.2c-1.9,1.8 -4,2.5 -6.4,2.4c-2.2,-0.2 -4.1,-1.1 -5.6,-2.7c-1.5,-1.6 -2.3,-3.6 -2.3,-5.9l3.7,0l0,0.9c0,0.9 0.5,1.8 1.5,2.8c1,1 2,1.4 3.2,1.4c1.5,0 2.7,-0.5 3.5,-1.4c0.8,-0.8 1.2,-1.9 1.2,-3.2c0,-2.3 -1.3,-3.8 -3.9,-4.7l-3.1,-1c-3.3,-1 -5,-3.2 -5.1,-6.6c-0.1,-2 0.6,-3.8 2.1,-5.3c1.5,-1.5 3.3,-2.2 5.3,-2.3c1.8,-0.1 3.5,0.5 5.1,1.7c1.6,1.3 2.4,2.8 2.5,4.7l0,0.8l-3.7,0l0,-0.5c0,-0.9 -0.4,-1.7 -1.2,-2.3c-0.8,-0.6 -1.7,-0.9 -2.7,-0.9c-1,0 -1.9,0.4 -2.6,1.1c-0.7,0.7 -1.1,1.5 -1.1,2.6c-0.1,1.9 1,3.3 3.4,4.1l3.1,1c3.5,1.2 5.4,3.6 5.6,7.1z"
             class="st0" />
        </g>
        <g
           id="svg_13">
          <g
             id="svg_14">
            <g
               id="svg_15">
              <g
                 id="svg_16">
                <path
                   id="svg_17"
                   d="m71.945257,37.3l-0.9,0c0,-16.7 -13.6,-30.3 -30.3,-30.3s-30.4,13.6 -30.4,30.3l-0.9,0c0,-17.2 14,-31.3 31.3,-31.3s31.2,14.1 31.2,31.3z"
                   class="st1" />
              </g>
              <g
                 id="svg_18">
                <path
                   id="svg_19"
                   d="m72.145257,37.5l-1.3,0l0,-0.2c0,-16.6 -13.5,-30.1 -30.1,-30.1c-16.6,0 -30.1,13.5 -30.1,30.1l0,0.2l-1.3,0l0,-0.2c0,-17.3 14.1,-31.5 31.5,-31.5s31.5,14.1 31.5,31.5l0,0.2l-0.2,0zm-1,-0.4l0.5,0c-0.1,-17 -14,-30.8 -31,-30.8s-30.9,13.8 -31,30.8l0.5,0c0.1,-16.7 13.8,-30.3 30.5,-30.3c16.8,0 30.4,13.6 30.5,30.3z"
                   class="st1" />
                <path
                   id="svg_20"
                   d="m72.245257,37.6l-1.5,0l0,-0.3c0,-16.6 -13.5,-30 -30,-30s-30,13.5 -30,30l0,0.3l-1.5,0l0,-0.3c0,-17.4 14.2,-31.6 31.6,-31.6s31.6,14.2 31.6,31.6l0,0.3l-0.2,0zm-1.4,-0.2l1.2,0l0,-0.1c0,-17.3 -14.1,-31.4 -31.4,-31.4c-17.3,0 -31.4,14.1 -31.4,31.4l0,0.1l1.2,0l0,-0.1c0,-16.7 13.6,-30.2 30.2,-30.2c16.7,0 30.2,13.6 30.2,30.2l0,0.1zm0.9,-0.2l-0.7,0l0,-0.1c-0.1,-16.7 -13.8,-30.2 -30.5,-30.2c-16.7,0 -30.3,13.6 -30.5,30.2l0,0.1l-0.7,0l0,-0.1c0.1,-17 14.1,-30.9 31.1,-30.9c17.3,0 31.2,13.9 31.3,31l0,0zm-0.5,-0.2l0.3,0c-0.2,-16.9 -14,-30.7 -30.9,-30.7c-16.9,0 -30.8,13.7 -30.9,30.7l0.3,0c0.2,-16.7 13.9,-30.3 30.6,-30.3c16.7,0 30.5,13.6 30.6,30.3z"
                   class="st1" />
              </g>
            </g>
          </g>
          <g
             id="svg_21">
            <g
               id="svg_22">
              <g
                 id="svg_23">
                <path
                   id="svg_24"
                   d="m41.345257,70.8c-9.3,0 -18.6,-3.5 -25.7,-10.6l0.6,-0.6c13.8,13.8 36.3,13.8 50.1,0l0.6,0.6c-7,7 -16.3,10.6 -25.6,10.6z"
                   class="st1" />
              </g>
              <g
                 id="svg_25">
                <path
                   id="svg_26"
                   d="m41.345257,71c-9.8,0 -19,-3.8 -25.9,-10.7l-0.1,-0.1l0.9,-0.9l0.1,0.1c13.7,13.7 36.1,13.7 49.8,0l0.1,-0.1l0.9,0.9l-0.1,0.1c-6.8,6.9 -16,10.7 -25.7,10.7zm-25.5,-10.9c6.8,6.7 15.8,10.4 25.4,10.4c9.6,0 18.6,-3.7 25.4,-10.4l-0.4,-0.4c-13.8,13.8 -36.1,13.8 -50,0.1l-0.4,0.3z"
                   class="st1" />
                <path
                   id="svg_27"
                   d="m41.345257,71.1c-9.8,0 -19,-3.8 -25.9,-10.7l-0.2,-0.2l1.1,-1.1l0.2,0.2c13.7,13.7 36,13.7 49.7,0l0.2,-0.2l1.1,1.1l-0.2,0.2c-7,6.9 -16.2,10.7 -26,10.7zm-25.9,-11l0,0c7,7 16.1,10.8 25.9,10.8c9.8,0 18.9,-3.8 25.8,-10.7l0.1,-0.1l-0.8,-0.8l-0.1,0.1c-13.8,13.8 -36.2,13.8 -49.9,0l-0.1,-0.1l-0.9,0.8zm25.9,10.5c-9.6,0 -18.7,-3.7 -25.5,-10.4l-0.1,-0.1l0.5,-0.5l0.1,0.1c6.7,6.6 15.6,10.2 25,10.2s18.3,-3.6 25,-10.2l0.1,-0.1l0.5,0.5l-0.1,0.1c-6.9,6.7 -15.9,10.4 -25.5,10.4zm-25.3,-10.5c6.7,6.7 15.7,10.4 25.3,10.4c9.5,0 18.5,-3.7 25.3,-10.3l-0.2,-0.2c-6.8,6.5 -15.7,10.2 -25.1,10.2s-18.4,-3.7 -25.1,-10.3l-0.2,0.2z"
                   class="st1" />
              </g>
            </g>
          </g>
          <g
             id="svg_28">
            <g
               id="svg_29">
              <g
                 id="svg_30">
                <path
                   id="svg_31"
                   d="m39.545257,73.9c-8.6,0 -16.9,-3 -23.5,-8.7c-7.4,-6.3 -11.9,-15.1 -12.7,-24.8l0.9,-0.1c0.8,9.4 5.1,18 12.3,24.2c7.2,6.1 16.4,9.1 25.8,8.4l0.1,0.9c-0.9,0.1 -1.9,0.1 -2.9,0.1z"
                   class="st1" />
                <path
                   id="svg_32"
                   d="m39.545257,74c-8.6,0 -17,-3.1 -23.6,-8.7c-7.4,-6.3 -11.9,-15.1 -12.7,-24.8l0,-0.1l1.1,-0.1l0,0.1c0.7,9.4 5.1,18 12.3,24.1c7.2,6.1 16.3,9.1 25.7,8.3l0.1,0l0.1,1.1l-0.1,0c-0.9,0 -1.9,0.1 -2.9,0.1zm-36.1,-33.5c0.8,9.6 5.3,18.4 12.6,24.6c6.6,5.6 14.9,8.7 23.5,8.7c0.9,0 1.9,0 2.8,-0.1l-0.1,-0.7c-9.4,0.7 -18.6,-2.2 -25.8,-8.4c-7.2,-6.1 -11.6,-14.7 -12.4,-24.1l-0.6,0z"
                   class="st1" />
              </g>
              <g
                 id="svg_33">
                <path
                   id="svg_34"
                   d="m39.545257,74.1c-8.6,0 -17.1,-3.1 -23.7,-8.7c-7.4,-6.3 -12,-15.2 -12.7,-24.9l0,-0.2l1.3,-0.1l0,0.2c0.7,9.4 5.1,17.9 12.3,24c7.2,6.1 16.3,9.1 25.7,8.3l0.2,0l0.1,1.3l-0.2,0c-1,0.1 -2,0.1 -3,0.1zm-36,-33.5c0.8,9.5 5.3,18.2 12.6,24.4c7.2,6.2 16.6,9.3 26.1,8.5l0,-0.5c-9.4,0.7 -18.6,-2.3 -25.7,-8.4c-7.3,-6.1 -11.7,-14.6 -12.5,-24l-0.5,0z"
                   class="st1" />
                <path
                   id="svg_35"
                   d="m39.545257,74.2c-8.7,0 -17.1,-3.1 -23.7,-8.8c-7.5,-6.4 -12,-15.2 -12.8,-25l0,-0.3l1.5,-0.1l0,0.3c0.7,9.4 5.1,17.9 12.2,24c7.1,6.1 16.2,9 25.6,8.3l0.3,0l0.1,1.5l-0.3,0c-0.9,0.1 -1.9,0.1 -2.9,0.1zm-36.3,-33.9l0,0.1c0.8,9.7 5.3,18.5 12.7,24.9c6.6,5.6 15,8.7 23.6,8.7c1,0 2,0 3,-0.1l0.1,0l-0.1,-1.2l-0.1,0c-9.4,0.8 -18.6,-2.2 -25.8,-8.3c-7.2,-6.1 -11.5,-14.7 -12.3,-24.1l0,-0.1l-1.1,0.1zm36.3,33.5c-8.6,0 -16.8,-3 -23.4,-8.7c-7.4,-6.2 -11.8,-14.9 -12.7,-24.5l0,-0.1l0.7,-0.1l0,0.1c0.8,9.4 5.2,17.9 12.4,24c7.2,6.1 16.3,9.1 25.7,8.4l0.1,0l0.1,0.7l-0.1,0c-1,0.1 -1.9,0.2 -2.8,0.2zm-35.9,-33.1c0.8,9.5 5.3,18.1 12.5,24.3c7.3,6.2 16.5,9.2 26,8.5l0,-0.3c-9.4,0.7 -18.5,-2.3 -25.7,-8.5c-7.2,-6.1 -11.6,-14.7 -12.4,-24.1l-0.4,0.1z"
                   class="st1" />
              </g>
            </g>
          </g>
          <g
             id="svg_36">
            <g
               id="svg_37">
              <g
                 id="svg_38">
                <path
                   id="svg_39"
                   d="m1.645257,47.9c-5.5,-20.7 6.8,-41.9 27.4,-47.4l0.2,0.9c-20.1,5.3 -32.1,26.1 -26.7,46.2l-0.9,0.3z"
                   class="st1" />
                <path
                   id="svg_40"
                   d="m1.545257,48l0,0c-5.6,-20.8 6.8,-42.1 27.4,-47.6l0.1,0l0.3,1.1l-0.1,0c-9.7,2.6 -17.8,8.8 -22.9,17.6c-5,8.7 -6.4,18.9 -3.8,28.6l0,0.1l-1,0.2zm27.4,-47.4c-20.5,5.5 -32.7,26.6 -27.3,47.2l0.7,-0.2c-2.6,-9.7 -1.2,-19.9 3.8,-28.7c5.1,-8.7 13.2,-15 22.9,-17.6l-0.1,-0.7z"
                   class="st1" />
              </g>
              <g
                 id="svg_41">
                <path
                   id="svg_42"
                   d="m1.445257,48.1l0,-0.2c-5.5,-20.7 6.8,-42.1 27.6,-47.7l0.2,-0.1l0.3,1.3l-0.2,0.1c-9.7,2.6 -17.8,8.8 -22.8,17.5c-5,8.7 -6.4,18.8 -3.8,28.5l0.1,0.2l-1.4,0.4zm27.4,-47.4c-20.3,5.6 -32.4,26.5 -27.1,46.9l0.5,-0.1c-2.5,-9.7 -1.2,-19.9 3.9,-28.6c5.1,-8.7 13.2,-15 22.9,-17.7l-0.2,-0.5z"
                   class="st1" />
                <path
                   id="svg_43"
                   d="m1.445257,48.2l-0.1,-0.3c-5.6,-20.8 6.8,-42.2 27.6,-47.8l0.3,-0.1l0.4,1.5l-0.3,0.1c-9.7,2.6 -17.7,8.8 -22.8,17.5c-5,8.7 -6.4,18.8 -3.8,28.5l0.1,0.3l-1.4,0.3zm27.7,-47.9l-0.1,0c-20.7,5.5 -33,26.9 -27.5,47.6l0,0.1l1.1,-0.3l0,-0.1c-2.6,-9.7 -1.2,-19.9 3.8,-28.6c5,-8.7 13.2,-15 22.9,-17.6l0.1,0l-0.3,-1.1zm-27.4,47.4l0,0c-2.6,-10 -1.2,-20.3 3.9,-29.2s13.4,-15.2 23.2,-17.9l0.1,0l0.2,0.7l-0.1,0c-9.7,2.6 -17.8,8.9 -22.8,17.6c-5,8.7 -6.4,18.9 -3.9,28.6l0,0.1l-0.6,0.1zm27.1,-46.9c-9.8,2.7 -17.9,9 -23,17.8c-5.1,8.8 -6.5,19 -3.9,28.9l0.3,-0.1c-2.5,-9.7 -1.1,-19.9 3.9,-28.6c5,-8.7 13.2,-15 22.8,-17.7l-0.1,-0.3z"
                   class="st1" />
              </g>
            </g>
          </g>
          <g
             id="svg_44">
            <g
               id="svg_45">
              <g
                 id="svg_46">
                <rect
                   id="svg_47"
                   height="5.1"
                   width="0.9"
                   class="st1"
                   y="6.5"
                   x="39.545257" />
                <path
                   id="svg_48"
                   d="m40.545257,11.7l-1.1,0l0,-5.2l1.1,0l0,5.2zm-0.9,-0.2l0.7,0l0,-4.9l-0.7,0l0,4.9z"
                   class="st1" />
              </g>
              <g
                 id="svg_49">
                <path
                   id="svg_50"
                   d="m40.645257,11.8l-1.3,0l0,-5.5l1.3,0l0,5.5zm-0.9,-0.4l0.5,0l0,-4.6l-0.5,0l0,4.6z"
                   class="st1" />
                <path
                   id="svg_51"
                   d="m40.745257,11.9l-1.5,0l0,-5.7l1.5,0l0,5.7zm-1.3,-0.2l1.2,0l0,-5.3l-1.2,0l0,5.3zm0.9,-0.2l-0.7,0l0,-4.8l0.7,0l0,4.8zm-0.5,-0.2l0.3,0l0,-4.5l-0.3,0l0,4.5z"
                   class="st1" />
              </g>
            </g>
          </g>
          <g
             id="svg_52">
            <g
               id="svg_53">
              <g
                 id="svg_54">
                <rect
                   id="svg_55"
                   height="5.1"
                   width="0.9"
                   class="st1"
                   y="65.4"
                   x="39.545257" />
                <path
                   id="svg_56"
                   d="m40.545257,70.5l-1.1,0l0,-5.2l1.1,0l0,5.2zm-0.9,-0.2l0.7,0l0,-4.9l-0.7,0l0,4.9z"
                   class="st1" />
              </g>
              <g
                 id="svg_57">
                <path
                   id="svg_58"
                   d="m40.645257,70.6l-1.3,0l0,-5.5l1.3,0l0,5.5zm-0.9,-0.4l0.5,0l0,-4.6l-0.5,0l0,4.6z"
                   class="st1" />
                <path
                   id="svg_59"
                   d="m40.745257,70.7l-1.5,0l0,-5.7l1.5,0l0,5.7zm-1.3,-0.2l1.2,0l0,-5.3l-1.2,0l0,5.3zm0.9,-0.2l-0.7,0l0,-4.8l0.7,0l0,4.8zm-0.5,-0.2l0.3,0l0,-4.5l-0.3,0l0,4.5z"
                   class="st1" />
              </g>
            </g>
          </g>
          <g
             id="svg_60">
            <g
               id="svg_61">
              <g
                 id="svg_62">
                <path
                   id="svg_63"
                   d="m20.245257,59l16.5,-35.7l17.4,15.7l-33.9,20zm16.8,-34.5l-15.1,32.7l31,-18.3l-15.9,-14.4z"
                   class="st1" />
                <path
                   id="svg_64"
                   d="m20.045257,59.2l0.1,-0.3l16.6,-35.8l0.1,0.1l17.5,15.8l-0.1,0.1l-34.2,20.1zm16.8,-35.7l-16.4,35.3l33.6,-19.8l-17.2,-15.5zm-15.1,33.9l0.1,-0.3l15.2,-32.7l0.1,0.1l16,14.5l-0.1,0.1l-31.3,18.3zm15.4,-32.7l-15,32.3l30.6,-18.1l-15.6,-14.2z"
                   class="st1" />
              </g>
            </g>
            <g
               id="svg_65">
              <g
                 id="svg_66">
                <path
                   id="svg_67"
                   d="m54.245257,34.4l-12.8,-11.6l15.6,-3.6l-2.8,15.2zm-11.3,-11.2l10.7,9.7"
                   class="st1" />
              </g>
            </g>
          </g>
          <g
             id="svg_68">
            <g
               id="svg_69">
              <g
                 id="svg_70">
                <path
                   id="svg_71"
                   d="m20.045257,58.8l18.3,-34.9l16.6,16.6l-34.9,18.3zm18.5,-33.6l-16.7,31.9l31.9,-16.7l-15.2,-15.2z"
                   class="st1" />
              </g>
            </g>
            <g
               id="svg_72">
              <g
                 id="svg_73">
                <path
                   id="svg_74"
                   d="m55.145257,35.9l-12.2,-12.2l15.8,-2.9l-3.6,15.1zm-10.7,-11.7l10.3,10.3l3,-12.7l-13.3,2.4z"
                   class="st1" />
              </g>
            </g>
          </g>
        </g>
      </g>
      <g
         id="svg_75">
        <circle
           id="svg_76"
           r="4.1"
           cy="21.3"
           cx="89.145257"
           class="st2" />
      </g>
    </g>
  </g>
</svg>
