<?xml version="1.0" encoding="UTF-8" standalone="no"?>
<svg
   xmlns:dc="http://purl.org/dc/elements/1.1/"
   xmlns:cc="http://creativecommons.org/ns#"
   xmlns:rdf="http://www.w3.org/1999/02/22-rdf-syntax-ns#"
   xmlns:svg="http://www.w3.org/2000/svg"
   xmlns="http://www.w3.org/2000/svg"
   xmlns:sodipodi="http://sodipodi.sourceforge.net/DTD/sodipodi-0.dtd"
   xmlns:inkscape="http://www.inkscape.org/namespaces/inkscape"
   inkscape:version="1.0 (4035a4fb49, 2020-05-01)"
   sodipodi:docname="logo_icompass_black.svg"
   id="svg2184"
   version="1.1"
   height="75"
   width="325">
  <metadata
     id="metadata2190">
    <rdf:RDF>
      <cc:Work
         rdf:about="">
        <dc:format>image/svg+xml</dc:format>
        <dc:type
           rdf:resource="http://purl.org/dc/dcmitype/StillImage" />
        <dc:title></dc:title>
      </cc:Work>
    </rdf:RDF>
  </metadata>
  <defs
     id="defs2188" />
  <sodipodi:namedview
     inkscape:current-layer="svg2184"
     inkscape:window-maximized="1"
     inkscape:window-y="-8"
     inkscape:window-x="-8"
     inkscape:cy="37.5"
     inkscape:cx="162.5"
     inkscape:zoom="3.8338462"
     showgrid="false"
     id="namedview2186"
     inkscape:window-height="1017"
     inkscape:window-width="1920"
     inkscape:pageshadow="2"
     inkscape:pageopacity="0"
     guidetolerance="10"
     gridtolerance="10"
     objecttolerance="10"
     borderopacity="1"
     bordercolor="#666666"
     pagecolor="#ffffff"
     inkscape:document-rotation="0" />
  <style
     id="style2097"
     type="text/css">.st0{fill:#FFFFFF;}
	.st1{fill:#22E3D3;}
	.st2{fill:#C63F3C;}</style>
  <g
     id="g2102">
    <title
       id="title2099">background</title>
    <rect
       x="-1"
       y="-1"
       width="327"
       height="77"
       id="canvas_background"
       fill="none" />
  </g>
  <g
     style="fill:#000000;fill-opacity:1"
     id="svg_3">
    <g
       style="fill:#000000;fill-opacity:1"
       id="svg_4">
      <path
         style="fill:#000000;fill-opacity:1"
         id="svg_5"
         d="m 91.345257,24.4 h -3.5 v -6.2 h 3.5 z m 0,29.7 h -3.5 V 27.6 h 3.5 z"
         class="st0" />
      <path
         style="fill:#000000;fill-opacity:1"
         id="svg_6"
         d="m 132.64526,44.9 c -1.6,3.1 -3.9,5.5 -6.7,7.2 -2.8,1.7 -6,2.6 -9.5,2.7 -5,0.1 -9.4,-1.7 -13,-5.4 -3.600003,-3.7 -5.400003,-8.1 -5.400003,-13.2 0,-5.3 1.8,-9.6 5.400003,-13.1 3.5,-3.5 7.9,-5.2 13,-5.2 3.6,0 6.8,0.9 9.7,2.7 2.8,1.8 5,4.1 6.5,7.1 h -4 c -3,-4.3 -7.1,-6.5 -12.5,-6.4 -4,0 -7.4,1.4 -10.2,4.3 -2.9,2.9 -4.3,6.3 -4.4,10.3 -0.1,4.2 1.3,7.8 4.3,10.8 3,3.1 6.5,4.6 10.7,4.6 2.4,0 4.8,-0.6 7.1,-1.9 2.2,-1.2 3.9,-2.7 5.2,-4.6 h 3.8 z"
         class="st0" />
      <path
         style="fill:#000000;fill-opacity:1"
         id="svg_7"
         d="m 161.74526,40.8 c 0,3.8 -1.4,7.1 -4.2,9.9 -2.8,2.8 -6.1,4.1 -9.9,4 -3.7,-0.1 -6.8,-1.5 -9.4,-4.2 -2.6,-2.7 -3.8,-5.9 -3.8,-9.6 0,-3.9 1.4,-7.2 4.1,-10 2.8,-2.8 6,-4.1 9.9,-4 3.7,0.1 6.8,1.5 9.4,4.3 2.6,2.7 3.9,5.9 3.9,9.6 z m -3.6,-0.3 c -0.1,-2.8 -1.1,-5.2 -3,-7.2 -1.9,-2 -4.2,-3 -6.9,-3 -2.8,0 -5.2,1 -7.2,3 -2,2 -3,4.4 -3,7.3 -0.1,2.8 0.9,5.2 2.7,7.4 1.9,2.1 4.2,3.2 6.9,3.3 2.9,0.2 5.4,-0.9 7.5,-3 2.1,-2.3 3.1,-4.8 3,-7.8 z"
         class="st0" />
      <path
         style="fill:#000000;fill-opacity:1"
         id="svg_8"
         d="m 206.24526,54.1 h -3.7 V 37.8 c 0,-2 -0.6,-3.8 -1.8,-5.3 -1.2,-1.5 -2.7,-2.2 -4.6,-2.2 -2,0 -3.6,0.6 -5,1.9 -1.4,1.3 -2.1,2.9 -2.1,4.7 V 54 h -3.7 V 37 c 0,-1.9 -0.7,-3.5 -2.1,-4.7 -1.4,-1.3 -3.1,-1.9 -5,-1.9 -1.9,0 -3.5,0.7 -4.6,2.2 -1.1,1.4 -1.7,3.2 -1.7,5.3 v 16.3 h -3.7 v -16 c 0,-3.3 0.9,-6 2.8,-8 1.8,-1.9 4.1,-3 7,-3.2 3.8,-0.3 6.9,1.3 9.2,4.9 2.3,-3.6 5.4,-5.2 9.2,-4.9 2.9,0.2 5.2,1.3 7,3.2 1.9,2 2.9,4.7 2.9,8 v 15.9 z"
         class="st0" />
      <path
         style="fill:#000000;fill-opacity:1"
         id="svg_9"
         d="m 240.14526,40.8 c 0,3.9 -1.4,7.2 -4.1,10 -2.8,2.8 -6,4.1 -9.9,4 -3.9,-0.2 -7.2,-1.7 -9.8,-4.7 v 13.3 h -3.4 V 41 c 0,-0.1 0,-0.2 0,-0.2 0,-3.8 1.4,-7.1 4.2,-9.9 2.8,-2.8 6.1,-4.1 9.9,-4 3.7,0.1 6.8,1.5 9.4,4.2 2.4,2.8 3.7,6 3.7,9.7 z m -3.5,0.3 c 0,-2.8 -0.9,-5.2 -2.8,-7.4 -1.9,-2.1 -4.2,-3.2 -7,-3.3 -2.9,-0.2 -5.4,0.9 -7.5,3 -2.1,2.2 -3.1,4.7 -3,7.7 0.1,2.8 1.1,5.2 3,7.2 1.9,2 4.3,3 7,3 2.8,0 5.2,-1 7.2,-3 2,-2 3,-4.4 3.1,-7.2 z"
         class="st0" />
      <path
         style="fill:#000000;fill-opacity:1"
         id="svg_10"
         d="M 273.64526,40.8 V 41 54.1 h -3.5 V 50 c -2.9,3.3 -6.4,4.9 -10.6,4.7 -3.6,-0.1 -6.7,-1.5 -9.3,-4.2 -2.6,-2.7 -3.8,-5.9 -3.8,-9.6 0,-3.9 1.4,-7.2 4.1,-10 2.8,-2.8 6.1,-4.1 9.9,-3.9 3.7,0.1 6.9,1.5 9.5,4.3 2.5,2.6 3.8,5.8 3.7,9.5 z m -3.6,-0.3 c -0.1,-2.8 -1.1,-5.2 -3,-7.2 -1.9,-2 -4.2,-3 -6.9,-3 -2.8,0 -5.2,1 -7.2,3 -2,2 -3,4.4 -3,7.2 -0.1,2.8 0.9,5.2 2.8,7.3 1.9,2.1 4.2,3.2 6.9,3.3 2.9,0.1 5.4,-0.9 7.5,-3.1 2,-2 3,-4.5 2.9,-7.5 z"
         class="st0" />
      <path
         style="fill:#000000;fill-opacity:1"
         id="svg_11"
         d="m 296.94526,46.2 c 0.2,2.4 -0.7,4.5 -2.5,6.2 -1.9,1.8 -4,2.5 -6.4,2.4 -2.2,-0.2 -4.1,-1.1 -5.6,-2.7 -1.5,-1.6 -2.3,-3.6 -2.3,-5.9 h 3.7 v 0.9 c 0,0.9 0.5,1.8 1.5,2.8 1,1 2,1.4 3.2,1.4 1.5,0 2.7,-0.5 3.5,-1.4 0.8,-0.8 1.2,-1.9 1.2,-3.2 0,-2.3 -1.3,-3.8 -3.9,-4.7 l -3.1,-1 c -3.3,-1 -5,-3.2 -5.1,-6.6 -0.1,-2 0.6,-3.8 2.1,-5.3 1.5,-1.5 3.3,-2.2 5.3,-2.3 1.8,-0.1 3.5,0.5 5.1,1.7 1.6,1.3 2.4,2.8 2.5,4.7 V 34 h -3.7 v -0.5 c 0,-0.9 -0.4,-1.7 -1.2,-2.3 -0.8,-0.6 -1.7,-0.9 -2.7,-0.9 -1,0 -1.9,0.4 -2.6,1.1 -0.7,0.7 -1.1,1.5 -1.1,2.6 -0.1,1.9 1,3.3 3.4,4.1 l 3.1,1 c 3.5,1.2 5.3,3.6 5.6,7.1 z"
         class="st0" />
    </g>
    <path
       style="fill:#000000;fill-opacity:1"
       id="svg_12"
       d="m 319.94526,46.2 c 0.2,2.4 -0.7,4.5 -2.5,6.2 -1.9,1.8 -4,2.5 -6.4,2.4 -2.2,-0.2 -4.1,-1.1 -5.6,-2.7 -1.5,-1.6 -2.3,-3.6 -2.3,-5.9 h 3.7 v 0.9 c 0,0.9 0.5,1.8 1.5,2.8 1,1 2,1.4 3.2,1.4 1.5,0 2.7,-0.5 3.5,-1.4 0.8,-0.8 1.2,-1.9 1.2,-3.2 0,-2.3 -1.3,-3.8 -3.9,-4.7 l -3.1,-1 c -3.3,-1 -5,-3.2 -5.1,-6.6 -0.1,-2 0.6,-3.8 2.1,-5.3 1.5,-1.5 3.3,-2.2 5.3,-2.3 1.8,-0.1 3.5,0.5 5.1,1.7 1.6,1.3 2.4,2.8 2.5,4.7 V 34 h -3.7 v -0.5 c 0,-0.9 -0.4,-1.7 -1.2,-2.3 -0.8,-0.6 -1.7,-0.9 -2.7,-0.9 -1,0 -1.9,0.4 -2.6,1.1 -0.7,0.7 -1.1,1.5 -1.1,2.6 -0.1,1.9 1,3.3 3.4,4.1 l 3.1,1 c 3.5,1.2 5.4,3.6 5.6,7.1 z"
       class="st0" />
  </g>
  <g
     style="fill:#000000;fill-opacity:1"
     id="svg_13">
    <g
       style="fill:#000000;fill-opacity:1"
       id="svg_14">
      <g
         style="fill:#000000;fill-opacity:1"
         id="svg_15">
        <g
           style="fill:#000000;fill-opacity:1"
           id="svg_16">
          <path
             style="fill:#000000;fill-opacity:1"
             id="svg_17"
             d="m 71.945257,37.3 h -0.9 c 0,-16.7 -13.6,-30.3 -30.3,-30.3 -16.7,0 -30.4,13.6 -30.4,30.3 h -0.9 c 0,-17.2 14,-31.3 31.3,-31.3 17.3,0 31.2,14.1 31.2,31.3 z"
             class="st1" />
        </g>
        <g
           style="fill:#000000;fill-opacity:1"
           id="svg_18">
          <path
             style="fill:#000000;fill-opacity:1"
             id="svg_19"
             d="m 72.145257,37.5 h -1.3 v -0.2 c 0,-16.6 -13.5,-30.1 -30.1,-30.1 -16.6,0 -30.1,13.5 -30.1,30.1 v 0.2 h -1.3 v -0.2 c 0,-17.3 14.1,-31.5 31.5,-31.5 17.4,0 31.5,14.1 31.5,31.5 v 0.2 z m -1,-0.4 h 0.5 c -0.1,-17 -14,-30.8 -31,-30.8 -17,0 -30.9,13.8 -31,30.8 h 0.5 c 0.1,-16.7 13.8,-30.3 30.5,-30.3 16.8,0 30.4,13.6 30.5,30.3 z"
             class="st1" />
          <path
             style="fill:#000000;fill-opacity:1"
             id="svg_20"
             d="m 72.245257,37.6 h -1.5 v -0.3 c 0,-16.6 -13.5,-30 -30,-30 -16.5,0 -30,13.5 -30,30 v 0.3 h -1.5 v -0.3 c 0,-17.4 14.2,-31.6 31.6,-31.6 17.4,0 31.6,14.2 31.6,31.6 v 0.3 z m -1.4,-0.2 h 1.2 v -0.1 c 0,-17.3 -14.1,-31.4 -31.4,-31.4 -17.3,0 -31.4,14.1 -31.4,31.4 v 0.1 h 1.2 v -0.1 c 0,-16.7 13.6,-30.2 30.2,-30.2 16.7,0 30.2,13.6 30.2,30.2 z m 0.9,-0.2 h -0.7 v -0.1 c -0.1,-16.7 -13.8,-30.2 -30.5,-30.2 -16.7,0 -30.3,13.6 -30.5,30.2 v 0.1 h -0.7 v -0.1 c 0.1,-17 14.1,-30.9 31.1,-30.9 17.3,0 31.2,13.9 31.3,31 z m -0.5,-0.2 h 0.3 c -0.2,-16.9 -14,-30.7 -30.9,-30.7 -16.9,0 -30.8,13.7 -30.9,30.7 h 0.3 c 0.2,-16.7 13.9,-30.3 30.6,-30.3 16.7,0 30.5,13.6 30.6,30.3 z"
             class="st1" />
        </g>
      </g>
    </g>
    <g
       style="fill:#000000;fill-opacity:1"
       id="svg_21">
      <g
         style="fill:#000000;fill-opacity:1"
         id="svg_22">
        <g
           style="fill:#000000;fill-opacity:1"
           id="svg_23">
          <path
             style="fill:#000000;fill-opacity:1"
             id="svg_24"
             d="m 41.345257,70.8 c -9.3,0 -18.6,-3.5 -25.7,-10.6 l 0.6,-0.6 c 13.8,13.8 36.3,13.8 50.1,0 l 0.6,0.6 c -7,7 -16.3,10.6 -25.6,10.6 z"
             class="st1" />
        </g>
        <g
           style="fill:#000000;fill-opacity:1"
           id="svg_25">
          <path
             style="fill:#000000;fill-opacity:1"
             id="svg_26"
             d="m 41.345257,71 c -9.8,0 -19,-3.8 -25.9,-10.7 l -0.1,-0.1 0.9,-0.9 0.1,0.1 c 13.7,13.7 36.1,13.7 49.8,0 l 0.1,-0.1 0.9,0.9 -0.1,0.1 c -6.8,6.9 -16,10.7 -25.7,10.7 z m -25.5,-10.9 c 6.8,6.7 15.8,10.4 25.4,10.4 9.6,0 18.6,-3.7 25.4,-10.4 l -0.4,-0.4 c -13.8,13.8 -36.1,13.8 -50,0.1 z"
             class="st1" />
          <path
             style="fill:#000000;fill-opacity:1"
             id="svg_27"
             d="m 41.345257,71.1 c -9.8,0 -19,-3.8 -25.9,-10.7 l -0.2,-0.2 1.1,-1.1 0.2,0.2 c 13.7,13.7 36,13.7 49.7,0 l 0.2,-0.2 1.1,1.1 -0.2,0.2 c -7,6.9 -16.2,10.7 -26,10.7 z m -25.9,-11 v 0 c 7,7 16.1,10.8 25.9,10.8 9.8,0 18.9,-3.8 25.8,-10.7 l 0.1,-0.1 -0.8,-0.8 -0.1,0.1 c -13.8,13.8 -36.2,13.8 -49.9,0 l -0.1,-0.1 z m 25.9,10.5 c -9.6,0 -18.7,-3.7 -25.5,-10.4 l -0.1,-0.1 0.5,-0.5 0.1,0.1 c 6.7,6.6 15.6,10.2 25,10.2 9.4,0 18.3,-3.6 25,-10.2 l 0.1,-0.1 0.5,0.5 -0.1,0.1 c -6.9,6.7 -15.9,10.4 -25.5,10.4 z m -25.3,-10.5 c 6.7,6.7 15.7,10.4 25.3,10.4 9.5,0 18.5,-3.7 25.3,-10.3 l -0.2,-0.2 c -6.8,6.5 -15.7,10.2 -25.1,10.2 -9.4,0 -18.4,-3.7 -25.1,-10.3 z"
             class="st1" />
        </g>
      </g>
    </g>
    <g
       style="fill:#000000;fill-opacity:1"
       id="svg_28">
      <g
         style="fill:#000000;fill-opacity:1"
         id="svg_29">
        <g
           style="fill:#000000;fill-opacity:1"
           id="svg_30">
          <path
             style="fill:#000000;fill-opacity:1"
             id="svg_31"
             d="m 39.545257,73.9 c -8.6,0 -16.9,-3 -23.5,-8.7 -7.4,-6.3 -11.9,-15.1 -12.7,-24.8 l 0.9,-0.1 c 0.8,9.4 5.1,18 12.3,24.2 7.2,6.1 16.4,9.1 25.8,8.4 l 0.1,0.9 c -0.9,0.1 -1.9,0.1 -2.9,0.1 z"
             class="st1" />
          <path
             style="fill:#000000;fill-opacity:1"
             id="svg_32"
             d="m 39.545257,74 c -8.6,0 -17,-3.1 -23.6,-8.7 -7.4,-6.3 -11.9,-15.1 -12.7,-24.8 v -0.1 l 1.1,-0.1 v 0.1 c 0.7,9.4 5.1,18 12.3,24.1 7.2,6.1 16.3,9.1 25.7,8.3 h 0.1 l 0.1,1.1 h -0.1 c -0.9,0 -1.9,0.1 -2.9,0.1 z m -36.1,-33.5 c 0.8,9.6 5.3,18.4 12.6,24.6 6.6,5.6 14.9,8.7 23.5,8.7 0.9,0 1.9,0 2.8,-0.1 l -0.1,-0.7 c -9.4,0.7 -18.6,-2.2 -25.8,-8.4 -7.2,-6.1 -11.6,-14.7 -12.4,-24.1 z"
             class="st1" />
        </g>
        <g
           style="fill:#000000;fill-opacity:1"
           id="svg_33">
          <path
             style="fill:#000000;fill-opacity:1"
             id="svg_34"
             d="m 39.545257,74.1 c -8.6,0 -17.1,-3.1 -23.7,-8.7 -7.4,-6.3 -12,-15.2 -12.7,-24.9 v -0.2 l 1.3,-0.1 v 0.2 c 0.7,9.4 5.1,17.9 12.3,24 7.2,6.1 16.3,9.1 25.7,8.3 h 0.2 l 0.1,1.3 h -0.2 c -1,0.1 -2,0.1 -3,0.1 z m -36,-33.5 c 0.8,9.5 5.3,18.2 12.6,24.4 7.2,6.2 16.6,9.3 26.1,8.5 V 73 c -9.4,0.7 -18.6,-2.3 -25.7,-8.4 -7.3,-6.1 -11.7,-14.6 -12.5,-24 z"
             class="st1" />
          <path
             style="fill:#000000;fill-opacity:1"
             id="svg_35"
             d="m 39.545257,74.2 c -8.7,0 -17.1,-3.1 -23.7,-8.8 -7.5,-6.4 -12,-15.2 -12.8,-25 v -0.3 l 1.5,-0.1 v 0.3 c 0.7,9.4 5.1,17.9 12.2,24 7.1,6.1 16.2,9 25.6,8.3 h 0.3 l 0.1,1.5 h -0.3 c -0.9,0.1 -1.9,0.1 -2.9,0.1 z m -36.3,-33.9 v 0.1 c 0.8,9.7 5.3,18.5 12.7,24.9 6.6,5.6 15,8.7 23.6,8.7 1,0 2,0 3,-0.1 h 0.1 l -0.1,-1.2 h -0.1 c -9.4,0.8 -18.6,-2.2 -25.8,-8.3 -7.2,-6.1 -11.5,-14.7 -12.3,-24.1 v -0.1 z m 36.3,33.5 c -8.6,0 -16.8,-3 -23.4,-8.7 -7.4,-6.2 -11.8,-14.9 -12.7,-24.5 v -0.1 l 0.7,-0.1 v 0.1 c 0.8,9.4 5.2,17.9 12.4,24 7.2,6.1 16.3,9.1 25.7,8.4 h 0.1 l 0.1,0.7 h -0.1 c -1,0.1 -1.9,0.2 -2.8,0.2 z m -35.9,-33.1 c 0.8,9.5 5.3,18.1 12.5,24.3 7.3,6.2 16.5,9.2 26,8.5 v -0.3 c -9.4,0.7 -18.5,-2.3 -25.7,-8.5 -7.2,-6.1 -11.6,-14.7 -12.4,-24.1 z"
             class="st1" />
        </g>
      </g>
    </g>
    <g
       style="fill:#000000;fill-opacity:1"
       id="svg_36">
      <g
         style="fill:#000000;fill-opacity:1"
         id="svg_37">
        <g
           style="fill:#000000;fill-opacity:1"
           id="svg_38">
          <path
             style="fill:#000000;fill-opacity:1"
             id="svg_39"
             d="m 1.645257,47.9 c -5.5,-20.7 6.8,-41.9 27.4,-47.4 l 0.2,0.9 c -20.1,5.3 -32.1,26.1 -26.7,46.2 z"
             class="st1" />
          <path
             style="fill:#000000;fill-opacity:1"
             id="svg_40"
             d="m 1.545257,48 v 0 c -5.6,-20.8 6.8,-42.1 27.4,-47.6 h 0.1 l 0.3,1.1 h -0.1 c -9.7,2.6 -17.8,8.8 -22.9,17.6 -5,8.7 -6.4,18.9 -3.8,28.6 v 0.1 z m 27.4,-47.4 c -20.5,5.5 -32.7,26.6 -27.3,47.2 l 0.7,-0.2 c -2.6,-9.7 -1.2,-19.9 3.8,-28.7 5.1,-8.7 13.2,-15 22.9,-17.6 z"
             class="st1" />
        </g>
        <g
           style="fill:#000000;fill-opacity:1"
           id="svg_41">
          <path
             style="fill:#000000;fill-opacity:1"
             id="svg_42"
             d="m 1.445257,48.1 v -0.2 c -5.5,-20.7 6.8,-42.1 27.6,-47.7 l 0.2,-0.1 0.3,1.3 -0.2,0.1 c -9.7,2.6 -17.8,8.8 -22.8,17.5 -5,8.7 -6.4,18.8 -3.8,28.5 l 0.1,0.2 z m 27.4,-47.4 c -20.3,5.6 -32.4,26.5 -27.1,46.9 l 0.5,-0.1 c -2.5,-9.7 -1.2,-19.9 3.9,-28.6 5.1,-8.7 13.2,-15 22.9,-17.7 z"
             class="st1" />
          <path
             style="fill:#000000;fill-opacity:1"
             id="svg_43"
             d="m 1.445257,48.2 -0.1,-0.3 c -5.6,-20.8 6.8,-42.2 27.6,-47.8 l 0.3,-0.1 0.4,1.5 -0.3,0.1 c -9.7,2.6 -17.7,8.8 -22.8,17.5 -5,8.7 -6.4,18.8 -3.8,28.5 l 0.1,0.3 z m 27.7,-47.9 h -0.1 c -20.7,5.5 -33,26.9 -27.5,47.6 V 48 l 1.1,-0.3 v -0.1 c -2.6,-9.7 -1.2,-19.9 3.8,-28.6 5,-8.7 13.2,-15 22.9,-17.6 h 0.1 z m -27.4,47.4 v 0 c -2.6,-10 -1.2,-20.3 3.9,-29.2 5.1,-8.9 13.4,-15.2 23.2,-17.9 h 0.1 l 0.2,0.7 h -0.1 c -9.7,2.6 -17.8,8.9 -22.8,17.6 -5,8.7 -6.4,18.9 -3.9,28.6 v 0.1 z m 27.1,-46.9 c -9.8,2.7 -17.9,9 -23,17.8 -5.1,8.8 -6.5,19 -3.9,28.9 l 0.3,-0.1 c -2.5,-9.7 -1.1,-19.9 3.9,-28.6 5,-8.7 13.2,-15 22.8,-17.7 z"
             class="st1" />
        </g>
      </g>
    </g>
    <g
       style="fill:#000000;fill-opacity:1"
       id="svg_44">
      <g
         style="fill:#000000;fill-opacity:1"
         id="svg_45">
        <g
           style="fill:#000000;fill-opacity:1"
           id="svg_46">
          <rect
             style="fill:#000000;fill-opacity:1"
             id="svg_47"
             height="5.0999999"
             width="0.89999998"
             class="st1"
             y="6.5"
             x="39.545258" />
          <path
             style="fill:#000000;fill-opacity:1"
             id="svg_48"
             d="m 40.545257,11.7 h -1.1 V 6.5 h 1.1 z m -0.9,-0.2 h 0.7 V 6.6 h -0.7 z"
             class="st1" />
        </g>
        <g
           style="fill:#000000;fill-opacity:1"
           id="svg_49">
          <path
             style="fill:#000000;fill-opacity:1"
             id="svg_50"
             d="m 40.645257,11.8 h -1.3 V 6.3 h 1.3 z m -0.9,-0.4 h 0.5 V 6.8 h -0.5 z"
             class="st1" />
          <path
             style="fill:#000000;fill-opacity:1"
             id="svg_51"
             d="m 40.745257,11.9 h -1.5 V 6.2 h 1.5 z m -1.3,-0.2 h 1.2 V 6.4 h -1.2 z m 0.9,-0.2 h -0.7 V 6.7 h 0.7 z m -0.5,-0.2 h 0.3 V 6.8 h -0.3 z"
             class="st1" />
        </g>
      </g>
    </g>
    <g
       style="fill:#000000;fill-opacity:1"
       id="svg_52">
      <g
         style="fill:#000000;fill-opacity:1"
         id="svg_53">
        <g
           style="fill:#000000;fill-opacity:1"
           id="svg_54">
          <rect
             style="fill:#000000;fill-opacity:1"
             id="svg_55"
             height="5.0999999"
             width="0.89999998"
             class="st1"
             y="65.400002"
             x="39.545258" />
          <path
             style="fill:#000000;fill-opacity:1"
             id="svg_56"
             d="m 40.545257,70.5 h -1.1 v -5.2 h 1.1 z m -0.9,-0.2 h 0.7 v -4.9 h -0.7 z"
             class="st1" />
        </g>
        <g
           style="fill:#000000;fill-opacity:1"
           id="svg_57">
          <path
             style="fill:#000000;fill-opacity:1"
             id="svg_58"
             d="m 40.645257,70.6 h -1.3 v -5.5 h 1.3 z m -0.9,-0.4 h 0.5 v -4.6 h -0.5 z"
             class="st1" />
          <path
             style="fill:#000000;fill-opacity:1"
             id="svg_59"
             d="m 40.745257,70.7 h -1.5 V 65 h 1.5 z m -1.3,-0.2 h 1.2 v -5.3 h -1.2 z m 0.9,-0.2 h -0.7 v -4.8 h 0.7 z m -0.5,-0.2 h 0.3 v -4.5 h -0.3 z"
             class="st1" />
        </g>
      </g>
    </g>
    <g
       style="fill:#000000;fill-opacity:1"
       id="svg_60">
      <g
         style="fill:#000000;fill-opacity:1"
         id="svg_61">
        <g
           style="fill:#000000;fill-opacity:1"
           id="svg_62">
          <path
             style="fill:#000000;fill-opacity:1"
             id="svg_63"
             d="m 20.245257,59 16.5,-35.7 17.4,15.7 z m 16.8,-34.5 -15.1,32.7 31,-18.3 z"
             class="st1" />
          <path
             style="fill:#000000;fill-opacity:1"
             id="svg_64"
             d="m 20.045257,59.2 0.1,-0.3 16.6,-35.8 0.1,0.1 17.5,15.8 -0.1,0.1 z m 16.8,-35.7 -16.4,35.3 33.6,-19.8 z m -15.1,33.9 0.1,-0.3 15.2,-32.7 0.1,0.1 16,14.5 -0.1,0.1 z m 15.4,-32.7 -15,32.3 30.6,-18.1 z"
             class="st1" />
        </g>
      </g>
      <g
         style="fill:#000000;fill-opacity:1"
         id="svg_65">
        <g
           style="fill:#000000;fill-opacity:1"
           id="svg_66">
          <path
             style="fill:#000000;fill-opacity:1"
             id="svg_67"
             d="m 54.245257,34.4 -12.8,-11.6 15.6,-3.6 z m -11.3,-11.2 10.7,9.7"
             class="st1" />
        </g>
      </g>
    </g>
    <g
       style="fill:#000000;fill-opacity:1"
       id="svg_68">
      <g
         style="fill:#000000;fill-opacity:1"
         id="svg_69">
        <g
           style="fill:#000000;fill-opacity:1"
           id="svg_70">
          <path
             style="fill:#000000;fill-opacity:1"
             id="svg_71"
             d="m 20.045257,58.8 18.3,-34.9 16.6,16.6 z m 18.5,-33.6 -16.7,31.9 31.9,-16.7 z"
             class="st1" />
        </g>
      </g>
      <g
         style="fill:#000000;fill-opacity:1"
         id="svg_72">
        <g
           style="fill:#000000;fill-opacity:1"
           id="svg_73">
          <path
             style="fill:#000000;fill-opacity:1"
             id="svg_74"
             d="m 55.145257,35.9 -12.2,-12.2 15.8,-2.9 z m -10.7,-11.7 10.3,10.3 3,-12.7 z"
             class="st1" />
        </g>
      </g>
    </g>
  </g>
  <g
     id="svg_75">
    <circle
       class="st2"
       cx="89.145256"
       cy="21.299999"
       r="4.0999999"
       id="svg_76" />
  </g>
</svg>
