<?xml version="1.0" encoding="UTF-8" standalone="no"?>
<svg
   xmlns:dc="http://purl.org/dc/elements/1.1/"
   xmlns:cc="http://creativecommons.org/ns#"
   xmlns:rdf="http://www.w3.org/1999/02/22-rdf-syntax-ns#"
   xmlns:svg="http://www.w3.org/2000/svg"
   xmlns="http://www.w3.org/2000/svg"
   xmlns:sodipodi="http://sodipodi.sourceforge.net/DTD/sodipodi-0.dtd"
   xmlns:inkscape="http://www.inkscape.org/namespaces/inkscape"
   height="66"
   width="268"
   inkscape:version="1.0 (4035a4fb49, 2020-05-01)"
   sodipodi:docname="logo_icompass.svg"
   xml:space="preserve"
   viewBox="0 0 268 66"
   y="0px"
   x="0px"
   id="Calque_1"
   version="1.1"><metadata
   id="metadata161"><rdf:RDF><cc:Work
       rdf:about=""><dc:format>image/svg+xml</dc:format><dc:type
         rdf:resource="http://purl.org/dc/dcmitype/StillImage" /><dc:title></dc:title></cc:Work></rdf:RDF></metadata><defs
   id="defs159">
	
	
</defs><sodipodi:namedview
   inkscape:current-layer="Calque_1"
   inkscape:window-maximized="1"
   inkscape:window-y="-8"
   inkscape:window-x="-8"
   inkscape:cy="88.588215"
   inkscape:cx="111.16737"
   inkscape:zoom="2.4725167"
   showgrid="false"
   id="namedview157"
   inkscape:window-height="1017"
   inkscape:window-width="1920"
   inkscape:pageshadow="2"
   inkscape:pageopacity="0"
   guidetolerance="10"
   gridtolerance="10"
   objecttolerance="10"
   borderopacity="1"
   bordercolor="#666666"
   pagecolor="#ffffff"
   inkscape:document-rotation="0" />
<style
   id="style2"
   type="text/css">
	.st0{fill:#FFFFFF;}
	.st1{fill:#C63F3C;}
	.st2{fill:#22E3D3;}
</style>
<g
   transform="translate(-3.2355697,-77.653672)"
   id="g3245"><rect
     style="opacity:1;fill:#120a37;fill-opacity:1;stroke:none;stroke-width:0.516179"
     id="rect986"
     width="267.52582"
     height="65.851051"
     x="3.9463267"
     y="77.586792" /><g
     transform="matrix(0.78624073,0,0,0.78624073,38.184131,-23.66567)"
     id="g28">
		<g
   id="g22">
			<g
   id="g18">
				<path
   id="path4"
   d="m 53.7,161.5 h -3.1 v -5.4 h 3.1 z m 0,26 h -3.1 v -23.3 h 3.1 z"
   class="st0" />
				<path
   id="path6"
   d="m 90,179.5 c -1.4,2.7 -3.4,4.8 -5.9,6.3 -2.5,1.5 -5.3,2.3 -8.4,2.3 -4.4,0.1 -8.2,-1.5 -11.4,-4.8 -3.2,-3.2 -4.8,-7.1 -4.8,-11.6 0,-4.6 1.6,-8.5 4.8,-11.5 3.1,-3 6.9,-4.6 11.4,-4.5 3.1,0 6,0.8 8.5,2.4 2.4,1.6 4.4,3.6 5.7,6.2 h -3.5 c -2.6,-3.8 -6.3,-5.7 -10.9,-5.6 -3.5,0 -6.5,1.3 -9,3.8 -2.5,2.5 -3.8,5.5 -3.9,9.1 -0.1,3.7 1.2,6.8 3.8,9.5 2.6,2.7 5.7,4 9.4,4 2.1,0 4.2,-0.6 6.2,-1.7 1.9,-1.1 3.4,-2.4 4.5,-4 H 90 Z"
   class="st0" />
				<path
   id="path8"
   d="m 115.5,175.9 c 0,3.3 -1.2,6.2 -3.7,8.7 -2.4,2.4 -5.3,3.6 -8.7,3.5 -3.2,-0.1 -6,-1.3 -8.2,-3.7 -2.2,-2.4 -3.4,-5.2 -3.4,-8.4 0,-3.4 1.2,-6.3 3.6,-8.8 2.4,-2.4 5.3,-3.6 8.7,-3.5 3.2,0.1 6,1.4 8.2,3.7 2.4,2.4 3.5,5.2 3.5,8.5 z m -3.1,-0.2 c -0.1,-2.5 -1,-4.6 -2.6,-6.3 -1.7,-1.7 -3.7,-2.6 -6.1,-2.6 -2.5,0 -4.6,0.8 -6.3,2.6 -1.7,1.8 -2.6,3.9 -2.7,6.4 -0.1,2.5 0.8,4.6 2.4,6.5 1.7,1.8 3.7,2.8 6.1,2.9 2.6,0.1 4.8,-0.8 6.6,-2.7 1.8,-2 2.7,-4.3 2.6,-6.8 z"
   class="st0" />
				<path
   id="path10"
   d="m 154.6,187.5 h -3.2 v -14.3 c 0,-1.8 -0.5,-3.3 -1.6,-4.6 -1,-1.3 -2.4,-1.9 -4.1,-1.9 -1.7,0 -3.2,0.6 -4.4,1.7 -1.2,1.1 -1.9,2.5 -1.9,4.2 v 15 h -3.3 v -15 c 0,-1.7 -0.6,-3 -1.9,-4.2 -1.2,-1.1 -2.7,-1.7 -4.4,-1.7 -1.7,0 -3,0.6 -4,1.9 -1,1.3 -1.5,2.8 -1.5,4.6 v 14.3 h -3.2 v -13.9 c 0,-2.9 0.8,-5.2 2.5,-7 1.6,-1.7 3.6,-2.6 6.1,-2.8 3.4,-0.3 6.1,1.2 8.1,4.3 2,-3.2 4.7,-4.6 8.1,-4.3 2.5,0.2 4.6,1.2 6.2,2.8 1.7,1.8 2.5,4.1 2.5,7 z"
   class="st0" />
				<path
   id="path12"
   d="m 184.4,175.9 c 0,3.4 -1.2,6.3 -3.6,8.8 -2.4,2.4 -5.3,3.6 -8.7,3.5 -3.4,-0.1 -6.3,-1.5 -8.6,-4.1 v 11.7 h -3 v -19.6 c 0,-0.1 0,-0.1 0,-0.2 0,-3.3 1.2,-6.2 3.7,-8.7 2.4,-2.4 5.3,-3.6 8.7,-3.5 3.2,0.1 6,1.3 8.2,3.7 2.2,2.3 3.3,5.1 3.3,8.4 z m -3.1,0.2 c 0,-2.5 -0.8,-4.6 -2.5,-6.5 -1.7,-1.8 -3.7,-2.8 -6.1,-2.9 -2.6,-0.1 -4.8,0.8 -6.6,2.7 -1.8,1.9 -2.7,4.2 -2.6,6.7 0.1,2.5 0.9,4.6 2.6,6.3 1.7,1.7 3.7,2.6 6.1,2.6 2.5,0 4.6,-0.9 6.3,-2.6 1.7,-1.7 2.7,-3.8 2.8,-6.3 z"
   class="st0" />
				<path
   id="path14"
   d="m 213.8,175.9 v 0.2 11.5 h -3.1 V 184 c -2.5,2.9 -5.6,4.3 -9.3,4.2 -3.2,-0.1 -5.9,-1.3 -8.2,-3.7 -2.2,-2.4 -3.4,-5.2 -3.4,-8.4 0,-3.4 1.2,-6.3 3.6,-8.8 2.4,-2.4 5.3,-3.6 8.7,-3.4 3.3,0.1 6,1.4 8.3,3.7 2.4,2.2 3.5,5 3.4,8.3 z m -3.1,-0.3 c -0.1,-2.5 -0.9,-4.6 -2.6,-6.3 -1.7,-1.7 -3.7,-2.6 -6.1,-2.6 -2.5,0 -4.6,0.9 -6.3,2.6 -1.7,1.7 -2.6,3.9 -2.7,6.3 -0.1,2.5 0.8,4.6 2.4,6.4 1.7,1.8 3.7,2.8 6.1,2.9 2.6,0.1 4.8,-0.8 6.6,-2.7 1.7,-1.7 2.6,-4 2.6,-6.6 z"
   class="st0" />
				<path
   id="path16"
   d="m 234.3,180.6 c 0.2,2.1 -0.6,3.9 -2.2,5.4 -1.6,1.5 -3.5,2.2 -5.6,2.1 -2,-0.1 -3.6,-0.9 -4.9,-2.4 -1.3,-1.4 -2,-3.2 -2,-5.1 h 3.2 v 0.8 c 0,0.8 0.4,1.6 1.3,2.5 0.9,0.9 1.8,1.3 2.8,1.2 1.3,0 2.3,-0.4 3.1,-1.2 0.7,-0.7 1,-1.6 1.1,-2.8 0,-2 -1.1,-3.4 -3.4,-4.1 l -2.7,-0.9 c -2.9,-0.9 -4.4,-2.8 -4.5,-5.8 -0.1,-1.8 0.5,-3.3 1.8,-4.6 1.3,-1.3 2.9,-2 4.7,-2 1.6,-0.1 3.1,0.4 4.4,1.5 1.4,1.1 2.1,2.5 2.2,4.1 v 0.7 h -3.3 v -0.5 c 0,-0.8 -0.3,-1.5 -1,-2 -0.7,-0.5 -1.5,-0.8 -2.4,-0.8 -0.9,0 -1.6,0.3 -2.3,0.9 -0.6,0.6 -1,1.4 -1,2.3 -0.1,1.7 0.9,2.9 3,3.6 l 2.7,0.9 c 3.1,1.1 4.7,3.1 5,6.2 z"
   class="st0" />
			</g>
			<path
   id="path20"
   d="m 254.5,180.6 c 0.2,2.1 -0.6,3.9 -2.2,5.4 -1.6,1.5 -3.5,2.2 -5.6,2.1 -2,-0.1 -3.6,-0.9 -4.9,-2.4 -1.3,-1.4 -2,-3.2 -2,-5.1 h 3.2 v 0.8 c 0,0.8 0.4,1.6 1.3,2.5 0.9,0.9 1.8,1.3 2.8,1.2 1.3,0 2.3,-0.4 3.1,-1.2 0.7,-0.7 1,-1.6 1.1,-2.8 0,-2 -1.1,-3.4 -3.4,-4.1 l -2.7,-0.9 c -2.9,-0.9 -4.4,-2.8 -4.5,-5.8 -0.1,-1.8 0.5,-3.3 1.8,-4.6 1.3,-1.3 2.9,-2 4.7,-2 1.6,-0.1 3.1,0.4 4.4,1.5 1.4,1.1 2.1,2.5 2.2,4.1 v 0.7 h -3.3 v -0.5 c 0,-0.8 -0.3,-1.5 -1,-2 -0.7,-0.5 -1.5,-0.8 -2.4,-0.8 -0.9,0 -1.6,0.3 -2.3,0.9 -0.6,0.6 -1,1.4 -1,2.3 -0.1,1.7 0.9,2.9 3,3.6 l 2.7,0.9 c 3.1,1.1 4.8,3.1 5,6.2 z"
   class="st0" />
		</g>
		<g
   id="g26">
			<circle
   id="circle24"
   r="3.5999999"
   cy="158.7"
   cx="51.799999"
   class="st1" />
		</g>
	</g><g
     transform="matrix(0.44741045,0,0,0.43630017,-29.889906,77.173294)"
     id="g152">
		<g
   id="g42">
			<g
   id="g40">
				<g
   id="g32">
					<path
   id="path30"
   d="m 209.7,77.8 h -1.4 c 0,-25.9 -21,-46.9 -46.9,-46.9 -25.9,0 -46.9,21 -46.9,46.9 h -1.4 c 0,-26.6 21.7,-48.3 48.3,-48.3 26.6,0 48.3,21.6 48.3,48.3 z"
   class="st2" />
				</g>
				<g
   id="g38">
					<path
   id="path34"
   d="m 210,78.1 h -2 v -0.3 c 0,-25.7 -20.9,-46.6 -46.6,-46.6 -25.7,0 -46.6,20.9 -46.6,46.6 v 0.3 h -2.1 v -0.3 c 0,-26.8 21.8,-48.6 48.6,-48.6 26.8,0 48.7,21.8 48.7,48.6 z m -1.4,-0.7 h 0.8 c -0.2,-26.3 -21.6,-47.7 -48,-47.7 -26.4,0 -47.8,21.3 -48,47.7 h 0.8 c 0.2,-25.9 21.3,-46.9 47.2,-46.9 25.9,0.1 47,21.1 47.2,46.9 z"
   class="st2" />
					<path
   id="path36"
   d="m 210.2,78.2 h -2.3 v -0.5 c 0,-25.6 -20.8,-46.4 -46.4,-46.4 -25.6,0 -46.5,20.9 -46.5,46.5 v 0.5 h -2.3 v -0.5 c 0,-26.9 21.9,-48.8 48.8,-48.8 26.9,0 48.8,21.9 48.8,48.8 v 0.4 z M 208.1,78 h 1.8 v -0.2 c 0,-26.7 -21.8,-48.5 -48.5,-48.5 -26.7,0 -48.5,21.8 -48.5,48.5 V 78 h 1.8 v -0.2 c 0,-25.7 20.9,-46.7 46.7,-46.7 25.7,0 46.7,20.9 46.7,46.7 V 78 Z m 1.4,-0.4 h -1 v -0.1 c -0.2,-25.8 -21.3,-46.7 -47.1,-46.7 -25.8,0 -46.9,21 -47.1,46.7 v 0.1 h -1 v -0.1 c 0.2,-26.3 21.8,-47.8 48.1,-47.8 26.4,0 47.9,21.4 48.1,47.8 z m -0.8,-0.3 h 0.5 C 209,51.2 187.5,29.9 161.4,29.9 c -26.2,0 -47.6,21.2 -47.8,47.4 h 0.5 c 0.3,-25.9 21.5,-46.9 47.3,-46.9 25.9,0 47.1,21 47.3,46.9 z"
   class="st2" />
				</g>
			</g>
		</g>
		<g
   id="g56">
			<g
   id="g54">
				<g
   id="g46">
					<path
   id="path44"
   d="m 162.4,129.5 c -14.4,0 -28.8,-5.5 -39.7,-16.4 l 1,-1 c 21.4,21.4 56.1,21.4 77.5,0 l 1,1 c -11,10.9 -25.4,16.4 -39.8,16.4 z"
   class="st2" />
				</g>
				<g
   id="g52">
					<path
   id="path48"
   d="m 162.4,129.8 c -15.1,0 -29.3,-5.9 -40,-16.5 l -0.2,-0.2 1.5,-1.5 0.2,0.2 c 21.2,21.2 55.8,21.2 77,0 l 0.2,-0.2 1.5,1.5 -0.2,0.2 c -10.7,10.6 -24.9,16.5 -40,16.5 z M 123.1,113 c 10.5,10.4 24.4,16.1 39.3,16.1 14.8,0 28.8,-5.7 39.3,-16.1 l -0.5,-0.5 c -21.4,21.2 -56,21.2 -77.5,0 z"
   class="st2" />
					<path
   id="path50"
   d="m 162.4,129.9 c -15.2,0 -29.4,-5.9 -40.1,-16.6 l -0.3,-0.3 1.7,-1.7 0.3,0.3 c 21.2,21.2 55.6,21.2 76.8,0 l 0.3,-0.3 1.7,1.7 -0.3,0.3 c -10.7,10.8 -24.9,16.6 -40.1,16.6 z m -40,-16.9 0.1,0.1 c 10.6,10.6 24.8,16.5 39.9,16.5 15.1,0 29.2,-5.9 39.9,-16.5 l 0.1,-0.1 -1.3,-1.3 -0.1,0.1 c -21.3,21.3 -55.9,21.3 -77.2,0 l -0.1,-0.1 z m 40,16.3 c -14.9,0 -28.8,-5.7 -39.4,-16.1 l -0.1,-0.1 0.7,-0.7 0.1,0.1 c 10.3,10.2 24.1,15.8 38.6,15.8 14.6,0 28.3,-5.6 38.6,-15.8 l 0.1,-0.1 0.7,0.7 -0.1,0.1 c -10.4,10.4 -24.3,16.1 -39.2,16.1 z M 123.3,113 c 10.5,10.3 24.3,16 39.1,16 14.7,0 28.6,-5.7 39.1,-16 l -0.3,-0.3 c -10.4,10.2 -24.1,15.8 -38.7,15.8 -14.6,0 -28.4,-5.6 -38.7,-15.8 z"
   class="st2" />
				</g>
			</g>
		</g>
		<g
   id="g72">
			<g
   id="g70">
				<g
   id="g62">
					<path
   id="path58"
   d="m 159.7,134.3 c -13.3,0 -26.1,-4.7 -36.4,-13.4 -11.4,-9.7 -18.4,-23.3 -19.6,-38.3 l 1.4,-0.1 c 1.2,14.6 7.9,27.8 19.1,37.3 11.1,9.5 25.3,14.1 39.9,12.9 l 0.1,1.4 c -1.5,0.1 -3,0.2 -4.5,0.2 z"
   class="st2" />
					<path
   id="path60"
   d="m 159.7,134.4 c -13.3,0 -26.3,-4.8 -36.5,-13.5 -11.5,-9.8 -18.4,-23.4 -19.6,-38.4 v -0.1 l 1.7,-0.1 v 0.1 c 1.2,14.6 7.9,27.8 19,37.3 11.1,9.5 25.2,14.1 39.8,12.9 h 0.1 l 0.1,1.7 h -0.1 c -1.5,0.1 -3,0.1 -4.5,0.1 z M 103.9,82.7 c 1.2,14.9 8.1,28.4 19.5,38.1 10.1,8.6 23,13.4 36.3,13.4 1.5,0 2.9,-0.1 4.4,-0.2 l -0.1,-1.1 c -14.6,1.1 -28.7,-3.5 -39.8,-13 -11.1,-9.5 -17.9,-22.7 -19.1,-37.3 z"
   class="st2" />
				</g>
				<g
   id="g68">
					<path
   id="path64"
   d="m 159.7,134.6 c -13.4,0 -26.4,-4.8 -36.6,-13.5 -11.5,-9.8 -18.5,-23.5 -19.7,-38.5 v -0.3 l 2.1,-0.2 v 0.3 c 1.2,14.5 7.9,27.7 19,37.1 11.1,9.4 25.1,14 39.6,12.8 h 0.3 l 0.2,2.1 h -0.3 c -1.6,0.2 -3.1,0.2 -4.6,0.2 z M 104.1,82.8 c 1.3,14.7 8.1,28.2 19.4,37.8 11.2,9.5 25.6,14.3 40.4,13.2 l -0.1,-0.8 c -14.6,1.1 -28.7,-3.5 -39.8,-13 -11.1,-9.5 -17.9,-22.7 -19.2,-37.2 z"
   class="st2" />
					<path
   id="path66"
   d="m 159.7,134.8 c -13.4,0 -26.4,-4.8 -36.7,-13.6 -11.5,-9.8 -18.5,-23.5 -19.7,-38.6 v -0.5 l 2.3,-0.2 v 0.5 c 1.2,14.5 7.9,27.6 18.9,37 11,9.4 25.1,14 39.5,12.8 h 0.5 l 0.2,2.3 h -0.5 c -1.5,0.2 -3,0.3 -4.5,0.3 z M 103.5,82.4 v 0.2 c 1.2,15 8.2,28.7 19.6,38.4 10.2,8.7 23.2,13.5 36.5,13.5 1.5,0 3,-0.1 4.6,-0.2 h 0.2 l -0.1,-1.8 h -0.2 c -14.5,1.2 -28.6,-3.4 -39.7,-12.9 -11.1,-9.5 -17.8,-22.7 -19,-37.2 v -0.2 z m 56.2,51.7 c -13.3,0 -26,-4.7 -36.2,-13.4 C 112.2,111.1 105.3,97.6 104,82.8 v -0.1 l 1,-0.1 v 0.1 c 1.2,14.5 8,27.7 19.1,37.1 11.1,9.4 25.2,14.1 39.7,13 h 0.1 l 0.1,1 h -0.1 c -1.4,0.3 -2.8,0.3 -4.2,0.3 z M 104.3,83 c 1.3,14.7 8.2,28 19.4,37.5 11.2,9.6 25.5,14.2 40.1,13.2 v -0.5 c -14.5,1 -28.7,-3.6 -39.8,-13.1 -11.1,-9.5 -17.9,-22.7 -19.2,-37.2 z"
   class="st2" />
				</g>
			</g>
		</g>
		<g
   id="g88">
			<g
   id="g86">
				<g
   id="g78">
					<path
   id="path74"
   d="M 101.1,94.1 C 92.6,62.2 111.6,29.3 143.5,20.8 l 0.4,1.4 c -31.1,8.3 -49.7,40.4 -41.4,71.6 z"
   class="st2" />
					<path
   id="path76"
   d="m 101,94.2 v -0.1 c -8.5,-32 10.5,-64.9 42.5,-73.5 h 0.1 l 0.4,1.6 h -0.1 c -15,4 -27.6,13.7 -35.4,27.2 -7.8,13.5 -9.9,29.2 -5.9,44.2 v 0.1 z m 42.3,-73.3 c -31.7,8.6 -50.6,41.2 -42.2,73 l 1.1,-0.3 c -4,-15.1 -1.9,-30.8 5.9,-44.3 7.8,-13.5 20.4,-23.2 35.4,-27.3 z"
   class="st2" />
				</g>
				<g
   id="g84">
					<path
   id="path80"
   d="m 100.8,94.5 -0.1,-0.3 C 92.1,62.1 111.2,29.1 143.3,20.5 l 0.3,-0.1 0.5,2 -0.3,0.1 c -15,4 -27.5,13.6 -35.3,27.1 -7.8,13.5 -9.9,29.1 -5.8,44.1 l 0.1,0.3 z m 42.4,-73.3 c -31.4,8.6 -50.1,41 -41.9,72.5 l 0.7,-0.2 c -3.9,-15 -1.8,-30.8 6,-44.3 7.8,-13.5 20.4,-23.2 35.4,-27.3 z"
   class="st2" />
					<path
   id="path82"
   d="m 100.7,94.6 -0.1,-0.4 C 92,62.1 111.2,28.9 143.3,20.3 l 0.4,-0.1 0.6,2.3 -0.4,0.1 c -14.9,4 -27.4,13.6 -35.2,27 -7.8,13.4 -9.8,29 -5.8,44 L 103,94 Z m 42.9,-74.1 h -0.2 C 111.4,29.1 92.3,62 100.9,94 v 0.2 l 1.7,-0.5 v -0.2 c -4,-15 -1.9,-30.7 5.9,-44.2 7.8,-13.5 20.4,-23.1 35.4,-27.1 h 0.2 z m -42.4,73.3 v -0.1 c -4,-15.3 -1.8,-31.2 6.1,-44.9 7.9,-13.7 20.7,-23.6 35.9,-27.7 h 0.1 l 0.3,1 h -0.1 c -15,4.1 -27.5,13.8 -35.3,27.2 -7.8,13.5 -9.9,29.2 -6,44.2 v 0.1 z m 41.9,-72.5 c -15.1,4.2 -27.7,13.9 -35.6,27.5 -7.9,13.6 -10,29.4 -6.1,44.6 l 0.5,-0.1 c -3.9,-15 -1.8,-30.7 6,-44.2 7.8,-13.5 20.3,-23.2 35.3,-27.3 z"
   class="st2" />
				</g>
			</g>
		</g>
		<g
   id="g104">
			<g
   id="g102">
				<g
   id="g94">
					<rect
   id="rect90"
   height="7.8000002"
   width="1.4"
   class="st2"
   y="30.200001"
   x="159.7" />
					<path
   id="path92"
   d="m 161.3,38.1 h -1.7 V 30 h 1.7 z m -1.5,-0.3 h 1.1 v -7.5 h -1.1 z"
   class="st2" />
				</g>
				<g
   id="g100">
					<path
   id="path96"
   d="m 161.4,38.3 h -2.1 v -8.5 h 2.1 z M 160,37.7 h 0.8 V 30.5 H 160 Z"
   class="st2" />
					<path
   id="path98"
   d="m 161.6,38.4 h -2.3 v -8.7 h 2.3 z m -2.1,-0.2 h 1.8 V 30 h -1.8 z m 1.4,-0.4 h -1 v -7.4 h 1 z m -0.7,-0.3 h 0.5 v -6.9 h -0.5 z"
   class="st2" />
				</g>
			</g>
		</g>
		<g
   id="g120">
			<g
   id="g118">
				<g
   id="g110">
					<rect
   id="rect106"
   height="7.8000002"
   width="1.4"
   class="st2"
   y="121.1"
   x="159.7" />
					<path
   id="path108"
   d="m 161.3,129.1 h -1.7 V 121 h 1.7 z m -1.5,-0.3 h 1.1 v -7.5 h -1.1 z"
   class="st2" />
				</g>
				<g
   id="g116">
					<path
   id="path112"
   d="m 161.4,129.2 h -2.1 v -8.5 h 2.1 z m -1.4,-0.6 h 0.8 v -7.2 H 160 Z"
   class="st2" />
					<path
   id="path114"
   d="m 161.6,129.4 h -2.3 v -8.7 h 2.3 z m -2.1,-0.3 h 1.8 v -8.2 h -1.8 z m 1.4,-0.4 h -1 v -7.4 h 1 z m -0.7,-0.2 h 0.5 v -6.9 h -0.5 z"
   class="st2" />
				</g>
			</g>
		</g>
		<g
   id="g136">
			<g
   id="g128">
				<g
   id="g126">
					<path
   id="path122"
   d="m 129.9,111.3 25.6,-55.2 26.8,24.3 z m 26,-53.3 -23.4,50.4 47.9,-28.2 z"
   class="st2" />
					<path
   id="path124"
   d="m 129.6,111.7 0.2,-0.4 25.7,-55.4 0.1,0.1 27,24.4 -0.2,0.1 z M 155.5,56.3 130.2,111 182.1,80.4 Z m -23.3,52.5 0.2,-0.4 23.4,-50.6 0.1,0.1 24.7,22.3 -0.2,0.1 z m 23.7,-50.6 -23.1,49.9 47.4,-27.9 z"
   class="st2" />
				</g>
			</g>
			<g
   id="g134">
				<g
   id="g132">
					<path
   id="path130"
   d="M 182.4,73.2 162.6,55.3 186.8,49.7 Z M 165,55.9 181.6,71"
   class="st2" />
				</g>
			</g>
		</g>
		<g
   id="g150">
			<g
   id="g142">
				<g
   id="g140">
					<path
   id="path138"
   d="m 129.6,111 28.3,-53.9 25.6,25.6 z m 28.5,-51.9 -25.8,49.2 49.2,-25.8 z"
   class="st2" />
				</g>
			</g>
			<g
   id="g148">
				<g
   id="g146">
					<path
   id="path144"
   d="M 183.8,75.6 165,56.7 189.4,52.3 Z m -16.5,-18.1 15.9,15.9 4.7,-19.6 z"
   class="st2" />
				</g>
			</g>
		</g>
	</g></g>
</svg>
